<svg width="140" height="40" viewBox="0 0 140 40" fill="none" xmlns="http://www.w3.org/2000/svg">
<path d="M20 0L24.5255 15.4745L40 20L24.5255 24.5255L20 40L15.4745 24.5255L0 20L15.4745 15.4745L20 0Z" fill="url(#paint0_angular_1_344)"/>
<path d="M62.0703 16.6016C62.0078 15.9714 61.7396 15.4818 61.2656 15.1328C60.7917 14.7839 60.1484 14.6094 59.3359 14.6094C58.7839 14.6094 58.3177 14.6875 57.9375 14.8437C57.5573 14.9948 57.2656 15.2057 57.0625 15.4766C56.8646 15.7474 56.7656 16.0547 56.7656 16.3984C56.7552 16.6849 56.8151 16.9349 56.9453 17.1484C57.0807 17.362 57.2656 17.5469 57.5 17.7031C57.7344 17.8542 58.0052 17.987 58.3125 18.1016C58.6198 18.2109 58.9479 18.3047 59.2969 18.3828L60.7344 18.7266C61.4323 18.8828 62.0729 19.0911 62.6562 19.3516C63.2396 19.612 63.7448 19.9323 64.1719 20.3125C64.599 20.6927 64.9297 21.1406 65.1641 21.6562C65.4036 22.1719 65.526 22.763 65.5312 23.4297C65.526 24.4089 65.276 25.2578 64.7813 25.9766C64.2917 26.6901 63.5833 27.2448 62.6562 27.6406C61.7344 28.0312 60.6224 28.2266 59.3203 28.2266C58.0286 28.2266 56.9036 28.0286 55.9453 27.6328C54.9922 27.237 54.2474 26.651 53.7109 25.875C53.1797 25.0937 52.901 24.1276 52.875 22.9766H56.1484C56.1849 23.513 56.3385 23.9609 56.6094 24.3203C56.8854 24.6745 57.2526 24.9427 57.7109 25.125C58.1745 25.3021 58.6979 25.3906 59.2812 25.3906C59.8542 25.3906 60.3516 25.3073 60.7734 25.1406C61.2005 24.974 61.5313 24.7422 61.7656 24.4453C62 24.1484 62.1172 23.8073 62.1172 23.4219C62.1172 23.0625 62.0104 22.7604 61.7969 22.5156C61.5885 22.2708 61.2813 22.0625 60.875 21.8906C60.474 21.7187 59.9818 21.5625 59.3984 21.4219L57.6563 20.9844C56.3073 20.6562 55.2422 20.1432 54.4609 19.4453C53.6797 18.7474 53.2917 17.8073 53.2969 16.625C53.2917 15.6562 53.5495 14.8099 54.0703 14.0859C54.5964 13.362 55.3177 12.7969 56.2344 12.3906C57.151 11.9844 58.1927 11.7812 59.3594 11.7812C60.5469 11.7812 61.5833 11.9844 62.4688 12.3906C63.3594 12.7969 64.0521 13.362 64.5469 14.0859C65.0417 14.8099 65.2969 15.6484 65.3125 16.6016H62.0703ZM67.7441 28V16H71.0723V28H67.7441ZM69.416 14.4531C68.9212 14.4531 68.4967 14.2891 68.1426 13.9609C67.7936 13.6276 67.6191 13.2292 67.6191 12.7656C67.6191 12.3073 67.7936 11.9141 68.1426 11.5859C68.4967 11.2526 68.9212 11.0859 69.416 11.0859C69.9108 11.0859 70.3327 11.2526 70.6816 11.5859C71.0358 11.9141 71.2129 12.3073 71.2129 12.7656C71.2129 13.2292 71.0358 13.6276 70.6816 13.9609C70.3327 14.2891 69.9108 14.4531 69.416 14.4531ZM78.1602 28.1953C77.2487 28.1953 76.4232 27.9609 75.6836 27.4922C74.9492 27.0182 74.3659 26.3229 73.9336 25.4062C73.5065 24.4844 73.293 23.3542 73.293 22.0156C73.293 20.6406 73.5143 19.4974 73.957 18.5859C74.3997 17.6693 74.9883 16.9844 75.7227 16.5313C76.4622 16.0729 77.2721 15.8438 78.1523 15.8438C78.8242 15.8438 79.3841 15.9583 79.832 16.1875C80.2852 16.4115 80.6497 16.6927 80.9258 17.0312C81.207 17.3646 81.4206 17.6927 81.5664 18.0156H81.668V12H84.9883V28H81.707V26.0781H81.5664C81.4102 26.4115 81.1888 26.7422 80.9023 27.0703C80.6211 27.3932 80.2539 27.6615 79.8008 27.875C79.3529 28.0885 78.806 28.1953 78.1602 28.1953ZM79.2148 25.5469C79.7513 25.5469 80.2044 25.401 80.5742 25.1094C80.9492 24.8125 81.2357 24.3984 81.4336 23.8672C81.6367 23.3359 81.7383 22.7135 81.7383 22C81.7383 21.2865 81.6393 20.6667 81.4414 20.1406C81.2435 19.6146 80.957 19.2083 80.582 18.9219C80.207 18.6354 79.7513 18.4922 79.2148 18.4922C78.668 18.4922 78.207 18.6406 77.832 18.9375C77.457 19.2344 77.1732 19.6458 76.9805 20.1719C76.7878 20.6979 76.6914 21.3073 76.6914 22C76.6914 22.6979 76.7878 23.3151 76.9805 23.8516C77.1784 24.3828 77.4622 24.7995 77.832 25.1016C78.207 25.3984 78.668 25.5469 79.2148 25.5469ZM93.1934 28.2344C91.959 28.2344 90.8965 27.9844 90.0059 27.4844C89.1204 26.9792 88.4382 26.2656 87.959 25.3437C87.4798 24.4167 87.2402 23.3203 87.2402 22.0547C87.2402 20.8203 87.4798 19.737 87.959 18.8047C88.4382 17.8724 89.1126 17.1458 89.9824 16.625C90.8574 16.1042 91.8835 15.8438 93.0605 15.8438C93.8522 15.8438 94.5892 15.9714 95.2715 16.2266C95.959 16.4766 96.5579 16.8542 97.0684 17.3594C97.584 17.8646 97.985 18.5 98.2715 19.2656C98.5579 20.026 98.7012 20.9167 98.7012 21.9375V22.8516H88.5684V20.7891H95.5684C95.5684 20.3099 95.4642 19.8854 95.2559 19.5156C95.0475 19.1458 94.7585 18.8568 94.3887 18.6484C94.0241 18.4349 93.5996 18.3281 93.1152 18.3281C92.61 18.3281 92.1621 18.4453 91.7715 18.6797C91.3861 18.9089 91.084 19.2187 90.8652 19.6094C90.6465 19.9948 90.5345 20.4245 90.5293 20.8984V22.8594C90.5293 23.4531 90.6387 23.9661 90.8574 24.3984C91.0814 24.8307 91.3965 25.1641 91.8027 25.3984C92.209 25.6328 92.6908 25.75 93.248 25.75C93.6178 25.75 93.9564 25.6979 94.2637 25.5938C94.571 25.4896 94.834 25.3333 95.0527 25.125C95.2715 24.9167 95.4382 24.6615 95.5527 24.3594L98.6309 24.5625C98.4746 25.3021 98.1543 25.9479 97.6699 26.5C97.1908 27.0469 96.571 27.474 95.8105 27.7813C95.0553 28.0833 94.1829 28.2344 93.1934 28.2344ZM100.873 28V16H104.1V18.0937H104.225C104.443 17.349 104.811 16.7865 105.326 16.4063C105.842 16.0208 106.436 15.8281 107.107 15.8281C107.274 15.8281 107.454 15.8385 107.646 15.8594C107.839 15.8802 108.008 15.9089 108.154 15.9453V18.8984C107.998 18.8516 107.782 18.8099 107.506 18.7734C107.23 18.737 106.977 18.7188 106.748 18.7188C106.258 18.7188 105.821 18.8255 105.436 19.0391C105.055 19.2474 104.753 19.5391 104.529 19.9141C104.311 20.2891 104.201 20.7214 104.201 21.2109V28H100.873ZM114.785 28.2344C113.551 28.2344 112.488 27.9844 111.598 27.4844C110.712 26.9792 110.03 26.2656 109.551 25.3437C109.072 24.4167 108.832 23.3203 108.832 22.0547C108.832 20.8203 109.072 19.737 109.551 18.8047C110.03 17.8724 110.704 17.1458 111.574 16.625C112.449 16.1042 113.475 15.8438 114.652 15.8438C115.444 15.8438 116.181 15.9714 116.863 16.2266C117.551 16.4766 118.15 16.8542 118.66 17.3594C119.176 17.8646 119.577 18.5 119.863 19.2656C120.15 20.026 120.293 20.9167 120.293 21.9375V22.8516H110.16V20.7891H117.16C117.16 20.3099 117.056 19.8854 116.848 19.5156C116.639 19.1458 116.35 18.8568 115.98 18.6484C115.616 18.4349 115.191 18.3281 114.707 18.3281C114.202 18.3281 113.754 18.4453 113.363 18.6797C112.978 18.9089 112.676 19.2187 112.457 19.6094C112.238 19.9948 112.126 20.4245 112.121 20.8984V22.8594C112.121 23.4531 112.23 23.9661 112.449 24.3984C112.673 24.8307 112.988 25.1641 113.395 25.3984C113.801 25.6328 114.283 25.75 114.84 25.75C115.21 25.75 115.548 25.6979 115.855 25.5938C116.163 25.4896 116.426 25.3333 116.645 25.125C116.863 24.9167 117.03 24.6615 117.145 24.3594L120.223 24.5625C120.066 25.3021 119.746 25.9479 119.262 26.5C118.783 27.0469 118.163 27.474 117.402 27.7813C116.647 28.0833 115.775 28.2344 114.785 28.2344ZM125.887 28.2266C125.121 28.2266 124.439 28.0938 123.84 27.8281C123.241 27.5573 122.767 27.1589 122.418 26.6328C122.074 26.1016 121.902 25.4401 121.902 24.6484C121.902 23.9818 122.025 23.4219 122.27 22.9687C122.514 22.5156 122.848 22.151 123.27 21.875C123.691 21.599 124.171 21.3906 124.707 21.25C125.249 21.1094 125.816 21.0104 126.41 20.9531C127.108 20.8802 127.671 20.8125 128.098 20.75C128.525 20.6823 128.835 20.5833 129.027 20.4531C129.22 20.3229 129.316 20.1302 129.316 19.875V19.8281C129.316 19.3333 129.16 18.9505 128.848 18.6797C128.54 18.4089 128.103 18.2734 127.535 18.2734C126.936 18.2734 126.46 18.4062 126.105 18.6719C125.751 18.9323 125.517 19.2604 125.402 19.6562L122.324 19.4062C122.48 18.6771 122.788 18.0469 123.246 17.5156C123.704 16.9792 124.296 16.5677 125.02 16.2812C125.749 15.9896 126.592 15.8438 127.551 15.8438C128.217 15.8438 128.855 15.9219 129.465 16.0781C130.079 16.2344 130.624 16.4766 131.098 16.8047C131.577 17.1328 131.954 17.5547 132.23 18.0703C132.507 18.5807 132.645 19.1927 132.645 19.9062V28H129.488V26.3359H129.395C129.202 26.7109 128.944 27.0417 128.621 27.3281C128.298 27.6094 127.91 27.8307 127.457 27.9922C127.004 28.1484 126.48 28.2266 125.887 28.2266ZM126.84 25.9297C127.329 25.9297 127.762 25.8333 128.137 25.6406C128.512 25.4427 128.806 25.1771 129.02 24.8438C129.233 24.5104 129.34 24.1328 129.34 23.7109V22.4375C129.236 22.5052 129.092 22.5677 128.91 22.625C128.733 22.6771 128.533 22.7266 128.309 22.7734C128.085 22.8151 127.861 22.8542 127.637 22.8906C127.413 22.9219 127.21 22.9505 127.027 22.9766C126.637 23.0339 126.296 23.125 126.004 23.25C125.712 23.375 125.486 23.5443 125.324 23.7578C125.163 23.9661 125.082 24.2266 125.082 24.5391C125.082 24.9922 125.246 25.3385 125.574 25.5781C125.908 25.8125 126.329 25.9297 126.84 25.9297ZM138.555 12V28H135.227V12H138.555Z" fill="#16161A"/>
<defs>
<radialGradient id="paint0_angular_1_344" cx="0" cy="0" r="1" gradientUnits="userSpaceOnUse" gradientTransform="translate(20 20) rotate(90) scale(20)">
<stop stop-color="#0052FF" stop-opacity="0.64"/>
<stop offset="1" stop-color="#0052FF"/>
</radialGradient>
</defs>
</svg>
